<?xml version="1.0" encoding="UTF-8"?>
<svg width="2400px" height="3600px" clip-rule="evenodd" fill-rule="evenodd" image-rendering="optimizeQuality" shape-rendering="geometricPrecision" text-rendering="geometricPrecision" viewBox="0 0 2400 3394.29" xmlns="http://www.w3.org/2000/svg">
 <defs>
  <style type="text/css">.fil0 {fill:#1F1A17}</style>
 </defs>
 <path class="fil0" d="m864.65 1799h1170.6v171.74c-393.56 62.483-463.56 194.15-467.2 310.86-2.8103 90.13 0.728 199.13 201.4 305.29v94.922h-244.82c-3.5246-87.401-76.119-157.8-164.37-157.8h-96.992c-88.264 0-160.88 70.403-164.41 157.8h-277.53v-98.946c141.43-42.886 189.29-109.02 180.8-177.61-6.1326-49.496-20.597-127.78-71.583-172.03-65.511-56.925-177.64-75.539-264.41-94.128-190.3-40.775-429.55-77.197-498.59-280.93h614.78v-12.671h82.272v-46.485zm-582.17 109.85c133.5 80.749 289.42 134.67 486.19 139.37 49.563 1.7657 50.615 66.865 0 65.47-235.37-16.754-383-95.152-486.19-204.84zm792.18-1077.9l9.6651 4.96 7.3726-14.321 35.903-69.986c16.533-32.162 51.107-47.671 76.847-34.454l134.56 69.082c25.745 13.21 33.281 50.333 16.761 82.522l-35.875 69.973-7.3737 14.355 897.56 460.73c19.626 10.042 27.896 33.416 18.366 51.951l-18.049 35.215c-9.5166 18.514-33.354 25.395-52.954 15.313l-897.54-460.7-43.27 84.267-29.513 57.497c-0.28343 0.57943-1.0446 0.77486-1.6914 0.41714l-45.648-23.421-134.57-69.075-45.641-23.408c-0.63429-0.336-0.944-1.0709-0.63429-1.6434l29.501-57.497 43.249-84.274-9.6583-4.9611c-19.6-10.062-27.896-33.442-18.4-51.963l18.11-35.242c9.4629-18.514 33.274-25.402 52.914-15.333z"/>
</svg>
